<svg width="129" height="129" viewBox="0 0 129 129" fill="none" xmlns="http://www.w3.org/2000/svg">
<g clip-path="url(#clip0_1_3)">
<path d="M129 48.375C129 44.0984 127.301 39.9969 124.277 36.9729C121.253 33.9489 117.152 32.25 112.875 32.25H96.75C96.75 23.6968 93.3522 15.4939 87.3042 9.44581C81.2561 3.39776 73.0532 0 64.5 0C55.9468 0 47.7439 3.39776 41.6958 9.44581C35.6478 15.4939 32.25 23.6968 32.25 32.25H16.125C11.8484 32.25 7.74693 33.9489 4.7229 36.9729C1.69888 39.9969 0 44.0984 0 48.375L0 102.125C0.00853473 109.25 2.84274 116.081 7.88093 121.119C12.9191 126.157 19.7499 128.991 26.875 129H102.125C109.25 128.991 116.081 126.157 121.119 121.119C126.157 116.081 128.991 109.25 129 102.125V48.375ZM43 32.25C43 26.5478 45.2652 21.0792 49.2972 17.0472C53.3292 13.0152 58.7978 10.75 64.5 10.75C70.2022 10.75 75.6708 13.0152 79.7028 17.0472C83.7348 21.0792 86 26.5478 86 32.25H43Z" fill="#333333"/>
</g>
<defs>
<clipPath id="clip0_1_3">
<rect width="129" height="129" fill="white"/>
</clipPath>
</defs>
</svg>
